<svg width="152" height="21" viewBox="0 0 152 21" fill="none" xmlns="http://www.w3.org/2000/svg">
<path d="M3.19404 20.8084C2.17397 20.8084 1.4394 20.6297 0.990322 20.2723C0.541245 19.915 0.317545 19.3633 0.319223 18.6172C0.330057 18.1597 0.391387 17.7048 0.502098 17.2608L3.32659 3.96965C3.58887 2.76391 4.03124 1.86911 4.65368 1.28525C5.27613 0.701398 6.23692 0.407792 7.53605 0.404436L20.0764 0.372559L19.219 4.47717L8.66434 4.48807C8.2642 4.48807 8.057 4.54009 7.90935 4.68102C7.76171 4.82195 7.63336 5.12394 7.53186 5.58532L5.35414 15.812C5.32369 15.9408 5.30321 16.0718 5.29291 16.2038C5.29291 16.4051 5.31639 16.5318 5.43635 16.6014C5.55631 16.671 5.73583 16.6853 6.03531 16.6853L12.545 16.6954L13.5072 12.2258L9.43694 12.2359L10.1852 8.95088L18.4657 8.92991L15.9449 20.7756L3.19404 20.8084Z" fill="#535353"/>
<path d="M19.2676 20.7675L22.5174 5.5168L26.5977 5.50674L26.2327 7.16435C26.6147 6.58161 27.0409 6.15882 27.5112 5.89598C27.9815 5.63313 28.5469 5.50115 29.2074 5.50003L33.6174 5.48828L32.7265 9.57024L26.6664 9.58618C26.3661 9.58618 26.141 9.64211 25.9912 9.75396C25.841 9.86469 25.7244 10.0895 25.6439 10.4326L23.4678 20.7566L19.2676 20.7675Z" fill="#535353"/>
<path d="M35.7131 20.8159C34.8535 20.8159 34.2383 20.6719 33.8676 20.3838C33.4968 20.0958 33.3128 19.6395 33.3156 19.0148C33.3307 18.6195 33.382 18.2263 33.4691 17.8404L35.443 8.55741C35.6667 7.53342 36.0335 6.77843 36.5436 6.29245C37.0536 5.80646 37.8592 5.56347 38.9604 5.56347L49.2215 5.53662C49.9815 5.53662 50.5262 5.68091 50.8556 5.96948C51.185 6.25805 51.3488 6.69455 51.3472 7.27896C51.3444 7.65383 51.3031 8.02742 51.2239 8.39383L49.9077 14.5159L40.7547 14.5411L41.357 11.683L46.3425 11.6679L46.7518 9.82243C46.7877 9.63469 46.8102 9.44461 46.8189 9.25367C46.8189 9.09261 46.7745 8.98272 46.6847 8.92232C46.595 8.86192 46.433 8.83256 46.1898 8.8334L40.337 8.8485C39.9964 8.8485 39.7662 8.90442 39.6466 9.01627C39.5269 9.12812 39.4262 9.35434 39.3446 9.69492L37.8841 16.4428C37.864 16.5435 37.8489 16.6291 37.8388 16.6945C37.8289 16.7595 37.8236 16.8251 37.8228 16.8908C37.8228 17.0711 37.8723 17.1919 37.9722 17.2515C38.072 17.3111 38.2524 17.3413 38.5124 17.3404L48.7467 17.3144L48.0185 20.7806L35.7131 20.8159Z" fill="#535353"/>
<path d="M54.1271 20.868C53.2675 20.868 52.6523 20.7238 52.2815 20.4352C51.9108 20.1466 51.727 19.6903 51.7304 19.0661C51.7451 18.6708 51.7962 18.2777 51.8831 17.8917L53.8586 8.60874C54.0823 7.58363 54.4495 6.82865 54.9601 6.34378C55.4707 5.85891 56.2751 5.61675 57.3735 5.61731L67.6338 5.59131C68.3938 5.59131 68.9385 5.73531 69.2679 6.02333C69.5973 6.31134 69.7611 6.74784 69.7595 7.33281C69.7571 7.70765 69.716 8.08125 69.637 8.44767L68.3208 14.5673L59.1821 14.5933L59.7886 11.7361L64.7698 11.7201L65.1792 9.8746C65.2142 9.68644 65.2367 9.49615 65.2463 9.305C65.2463 9.14478 65.2019 9.03404 65.1121 8.97448C65.0223 8.91493 64.8604 8.88473 64.6172 8.88473L58.7534 8.90067C58.4137 8.90067 58.1838 8.95771 58.063 9.06844C57.9423 9.17917 57.8424 9.40399 57.7619 9.74709L56.2989 16.495C56.2779 16.5957 56.2628 16.6812 56.2528 16.7517C56.2431 16.8164 56.2381 16.8817 56.2377 16.9471C56.2377 17.1283 56.2863 17.2483 56.387 17.3087C56.4876 17.3691 56.6663 17.3976 56.9264 17.3976L67.1606 17.3708L66.4317 20.837L54.1271 20.868Z" fill="#535353"/>
<path d="M119.438 20.8974C118.579 20.8974 117.964 20.7534 117.593 20.4654C117.222 20.1774 117.038 19.721 117.042 19.0963C117.056 18.701 117.108 18.3079 117.194 17.9219L119.168 8.63895C119.392 7.61496 119.759 6.85997 120.269 6.37399C120.779 5.888 121.585 5.64473 122.687 5.64417L132.947 5.61816C133.707 5.61816 134.252 5.76245 134.581 6.05102C134.91 6.3396 135.074 6.77581 135.072 7.35966C135.07 7.73451 135.029 8.1081 134.95 8.47453L133.634 14.5983L124.524 14.6243L125.126 11.7663L130.066 11.7503L130.475 9.90481C130.511 9.71671 130.533 9.5264 130.543 9.33521C130.543 9.17499 130.498 9.06426 130.408 9.0047C130.319 8.94514 130.157 8.91494 129.913 8.91578L124.063 8.93088C123.723 8.93088 123.493 8.9868 123.373 9.09865C123.252 9.2105 123.152 9.43672 123.071 9.7773L121.609 16.5244C121.588 16.6259 121.572 16.7106 121.562 16.7811C121.553 16.8458 121.548 16.9111 121.547 16.9765C121.547 17.1577 121.596 17.2777 121.697 17.3381C121.797 17.3985 121.976 17.4278 122.236 17.427L132.47 17.401L131.741 20.8664L119.438 20.8974Z" fill="#535353"/>
<path d="M80.8897 20.804L83.0708 10.4649C83.0984 10.3457 83.1188 10.225 83.132 10.1033C83.132 9.78178 82.8823 9.62183 82.3829 9.62351L77.1366 9.63945C76.8371 9.63945 76.6165 9.69566 76.4764 9.80723C76.3363 9.9188 76.2247 10.1428 76.1408 10.4859L73.9598 20.825L69.7595 20.8359L73.0093 5.58518L77.0594 5.57511L76.6953 7.23272C77.4179 6.12709 78.4091 5.57231 79.6691 5.5684L85.4574 5.55078C86.2767 5.55078 86.8711 5.69059 87.2408 5.97022C87.6105 6.24984 87.7945 6.72129 87.7928 7.38456C87.7912 7.7692 87.7499 8.15264 87.6695 8.52878L85.0564 20.7965L80.8897 20.804Z" fill="#535353"/>
<path d="M100.804 20.8321C99.7837 20.8321 99.0542 20.6531 98.6152 20.2952C98.1762 19.9373 97.9575 19.3755 97.9592 18.6099C97.9592 18.4094 97.9701 18.203 97.991 17.9925C98.0161 17.7541 98.0567 17.5176 98.1127 17.2845L100.937 3.99336C101.2 2.78706 101.647 1.89226 102.279 1.30897C102.911 0.725669 103.867 0.431783 105.147 0.427309L117.692 0.397949L116.841 4.46733L106.546 4.49081C106.066 4.49081 105.741 4.56687 105.57 4.71899C105.4 4.8711 105.264 5.17869 105.163 5.64175L103.008 15.5849C102.988 15.6856 102.973 15.7711 102.963 15.8408C102.952 15.9155 102.947 15.9909 102.947 16.0664C102.947 16.2901 103.017 16.4506 103.156 16.5479C103.295 16.6453 103.555 16.695 103.935 16.6973L114.291 16.6729L113.41 20.8019L100.804 20.8321Z" fill="#535353"/>
<path d="M135.074 20.8347L139.408 0.465983L143.608 0.455078L139.274 20.8238L135.074 20.8347Z" fill="#535353"/>
<path d="M142.595 20.8346L146.939 0.429013L151.139 0.418945L146.796 20.8237L142.595 20.8346Z" fill="#535353"/>
</svg>
