<svg width="177" height="39" viewBox="0 0 177 39" fill="none" xmlns="http://www.w3.org/2000/svg">
<path d="M52.1613 29.0888V18.5757C52.1613 16.9453 51.8185 15.7598 51.1323 15.019C50.4464 14.2786 49.3825 13.9081 47.9411 13.9081C46.0025 13.9081 44.5835 14.3982 43.6837 15.3771C42.7839 16.3563 42.3342 17.9447 42.3342 20.1415V29.0888H40.858V5.88525H42.3342V13.2669L42.2596 15.3396H42.3641C42.9703 14.3654 43.7358 13.6597 44.6605 13.2221C45.585 12.7846 46.7331 12.5658 48.1049 12.5658C51.7832 12.5658 53.6225 14.5394 53.6225 18.486V29.0887H52.1613V29.0888Z" fill="#535353"/>
<path d="M70.7507 20.9625C70.7507 23.6071 70.1094 25.6725 68.8271 27.1586C67.5447 28.6449 65.775 29.388 63.5182 29.388C62.0966 29.388 60.8437 29.045 59.7603 28.3592C58.6766 27.6731 57.8465 26.6888 57.27 25.4065C56.6934 24.1239 56.4052 22.6427 56.4052 20.9625C56.4052 18.3181 57.0464 16.2577 58.3292 14.7815C59.6113 13.3052 61.3712 12.5669 63.6077 12.5669C65.8346 12.5669 67.5819 13.315 68.8494 14.8112C70.1169 16.3075 70.7507 18.358 70.7507 20.9625ZM57.9561 20.9625C57.9561 23.1894 58.4457 24.9269 59.4248 26.1743C60.4041 27.4221 61.7887 28.0459 63.5778 28.0459C65.3674 28.0459 66.7516 27.4221 67.7309 26.1743C68.7098 24.9269 69.1998 23.1894 69.1998 20.9625C69.1998 18.7258 68.7049 16.9912 67.716 15.7582C66.7267 14.5256 65.3377 13.9091 63.5481 13.9091C61.7588 13.9091 60.3792 14.5231 59.4101 15.7507C58.4407 16.9787 57.9561 18.7159 57.9561 20.9625Z" fill="#535353"/>
<path d="M84.6794 24.8696C84.6794 26.3211 84.1276 27.4372 83.0243 28.2174C81.9206 28.9979 80.3548 29.388 78.3266 29.388C76.1593 29.388 74.4396 29.055 73.1671 28.3889V26.7932C74.7975 27.6085 76.5172 28.016 78.3266 28.016C79.9273 28.016 81.1427 27.7501 81.9725 27.2182C82.8026 26.6865 83.2178 25.9781 83.2178 25.0932C83.2178 24.2781 82.8873 23.5922 82.2262 23.0353C81.5647 22.4787 80.4787 21.9316 78.9677 21.3948C77.3472 20.8084 76.2089 20.3041 75.5528 19.8812C74.8969 19.4589 74.402 18.9816 74.069 18.4497C73.7358 17.918 73.5696 17.2692 73.5696 16.5037C73.5696 15.291 74.0791 14.3316 75.0981 13.6258C76.1169 12.9199 77.5411 12.5669 79.3705 12.5669C81.1202 12.5669 82.7805 12.8951 84.3512 13.5512L83.7995 14.8933C82.2088 14.2372 80.7326 13.9091 79.3705 13.9091C78.0483 13.9091 76.9995 14.128 76.224 14.5652C75.4484 15.0029 75.0608 15.6093 75.0608 16.3845C75.0608 17.2295 75.3616 17.9055 75.963 18.4126C76.5645 18.9195 77.74 19.4863 79.4898 20.1127C80.9512 20.6396 82.0147 21.1143 82.6811 21.5368C83.3471 21.9593 83.8465 22.4389 84.1797 22.9759C84.5127 23.5126 84.6794 24.1438 84.6794 24.8696Z" fill="#535353"/>
<path d="M93.1346 28.075C94.069 28.075 94.8845 27.9955 95.5803 27.8364V29.0294C94.8646 29.2679 94.0395 29.3873 93.1047 29.3873C91.6735 29.3873 90.6168 29.0045 89.936 28.239C89.255 27.4735 88.9145 26.2704 88.9145 24.6302V14.162H86.5137V13.2971L88.9145 12.6261L89.6601 8.95752H90.4206V12.8794H95.1775V14.162H90.4206V24.4216C90.4206 25.6642 90.6392 26.5839 91.0765 27.1802C91.5143 27.7768 92.1999 28.075 93.1346 28.075Z" fill="#535353"/>
<path d="M98.876 8.3765C98.876 7.42211 99.1893 6.94482 99.8156 6.94482C100.123 6.94482 100.365 7.06926 100.539 7.31774C100.712 7.56623 100.8 7.91928 100.8 8.3765C100.8 8.82389 100.713 9.17675 100.539 9.43526C100.365 9.69378 100.123 9.82304 99.8156 9.82304C99.1893 9.82285 98.876 9.34073 98.876 8.3765ZM100.561 29.0897H99.085V12.8799H100.561V29.0897Z" fill="#535353"/>
<path d="M117.293 29.0898V18.5766C117.293 16.9462 116.95 15.7607 116.264 15.0199C115.578 14.2795 114.513 13.9091 113.072 13.9091C111.133 13.9091 109.714 14.3991 108.815 15.378C107.915 16.3572 107.465 17.9456 107.465 20.1424V29.0898H105.989V12.88H107.242L107.525 15.1021H107.614C108.668 13.4121 110.543 12.5669 113.237 12.5669C116.915 12.5669 118.755 14.5405 118.755 18.4871V29.0898H117.293Z" fill="#535353"/>
<path d="M136.649 12.8797V13.9086L133.293 14.1175C134.188 15.2309 134.635 16.4538 134.635 17.7859C134.635 19.3469 134.116 20.6119 133.077 21.5811C132.038 22.5504 130.644 23.035 128.894 23.035C128.158 23.035 127.641 23.0053 127.343 22.9457C126.757 23.2537 126.309 23.6166 126.001 24.0341C125.693 24.4518 125.539 24.8942 125.539 25.3612C125.539 25.8785 125.735 26.256 126.128 26.4947C126.52 26.7331 127.179 26.8523 128.104 26.8523H130.937C132.697 26.8523 134.044 27.2081 134.979 27.9186C135.913 28.6295 136.38 29.6806 136.38 31.0725C136.38 32.7822 135.687 34.102 134.3 35.0317C132.913 35.9612 130.937 36.4259 128.372 36.4259C126.334 36.4259 124.756 36.0331 123.638 35.248C122.519 34.4624 121.96 33.3691 121.96 31.9671C121.96 30.8536 122.305 29.9291 122.996 29.1935C123.687 28.458 124.624 27.9559 125.808 27.6873C125.32 27.4786 124.93 27.1828 124.637 26.8001C124.343 26.4175 124.197 25.9776 124.197 25.4805C124.197 24.397 124.888 23.4426 126.27 22.6173C125.325 22.2295 124.59 21.6207 124.063 20.7905C123.536 19.9606 123.272 19.0085 123.272 17.9349C123.272 16.3145 123.787 15.0146 124.816 14.0353C125.845 13.0562 127.234 12.5664 128.984 12.5664C130.047 12.5664 130.873 12.671 131.459 12.8797H136.649ZM123.526 31.8334C123.526 34.0601 125.181 35.1737 128.491 35.1737C132.746 35.1737 134.874 33.8167 134.874 31.1026C134.874 30.1282 134.541 29.4225 133.875 28.9851C133.209 28.5477 132.13 28.329 130.639 28.329H127.985C125.012 28.3288 123.526 29.4969 123.526 31.8334ZM124.763 17.9351C124.763 19.1877 125.144 20.1597 125.904 20.8503C126.665 21.5416 127.681 21.8867 128.954 21.8867C130.306 21.8867 131.342 21.5439 132.063 20.8578C132.784 20.172 133.144 19.1779 133.144 17.8754C133.144 16.4937 132.774 15.4574 132.033 14.7663C131.293 14.0754 130.256 13.7297 128.924 13.7297C127.631 13.7297 126.615 14.1003 125.874 14.8408C125.134 15.5814 124.763 16.613 124.763 17.9351Z" fill="#535353"/>
<path d="M139.676 27.9267C139.676 26.9525 140.074 26.4653 140.869 26.4653C141.684 26.4653 142.092 26.9525 142.092 27.9267C142.092 28.9012 141.684 29.3881 140.869 29.3881C140.074 29.3881 139.676 28.9012 139.676 27.9267Z" fill="#535353"/>
<path d="M151.645 12.567C152.818 12.567 153.832 12.7809 154.687 13.2082C155.542 13.6357 156.307 14.3663 156.983 15.4002H157.072C157.013 14.1476 156.983 12.9198 156.983 11.7169V5.88623H158.445V29.0896H157.475L157.102 26.6142H156.983C155.75 28.4634 153.981 29.3879 151.675 29.3879C149.438 29.3879 147.728 28.6922 146.545 27.3001C145.361 25.9083 144.77 23.8803 144.77 21.2159C144.77 18.4123 145.356 16.2701 146.53 14.7887C147.703 13.3076 149.408 12.567 151.645 12.567ZM151.645 13.9091C149.875 13.9091 148.545 14.5307 147.656 15.7731C146.766 17.0159 146.321 18.8204 146.321 21.1864C146.321 25.7793 148.105 28.0756 151.675 28.0756C153.503 28.0756 154.846 27.5439 155.701 26.48C156.555 25.4164 156.983 23.6616 156.983 21.2159V20.9624C156.983 18.4571 156.563 16.6554 155.723 15.5567C154.883 14.4586 153.524 13.9091 151.645 13.9091Z" fill="#535353"/>
<path d="M170.434 29.388C168.078 29.388 166.241 28.6624 164.924 27.2107C163.606 25.7591 162.948 23.7263 162.948 21.1116C162.948 18.5269 163.584 16.4568 164.857 14.9007C166.129 13.345 167.844 12.5669 170.002 12.5669C171.91 12.5669 173.416 13.2333 174.52 14.5652C175.623 15.8975 176.175 17.7067 176.175 19.9935V21.1865H164.499C164.519 23.4134 165.038 25.1134 166.057 26.2864C167.076 27.4596 168.535 28.0461 170.434 28.0461C171.359 28.0461 172.172 27.9816 172.872 27.8522C173.573 27.7233 174.461 27.4447 175.534 27.0172V28.3594C174.619 28.7572 173.774 29.028 172.999 29.1719C172.223 29.3157 171.368 29.388 170.434 29.388ZM170.002 13.8792C168.441 13.8792 167.188 14.3937 166.244 15.4225C165.299 16.4516 164.747 17.9354 164.588 19.8738H174.61C174.61 17.995 174.202 16.5261 173.387 15.4673C172.572 14.4085 171.443 13.8792 170.002 13.8792Z" fill="#535353"/>
<path d="M18.6064 35.7011C10.9877 36.6744 2.28574 30.6969 1.15965 21.8838C0.540372 17.0348 1.27406 12.233 4.35658 9.1605C7.43929 6.08821 8.37381 12.294 8.35085 15.1002C8.32809 17.9059 9.00775 24.1807 9.53077 26.2724C10.9352 31.8907 14.3415 35.7146 18.6064 35.7011Z" fill="#535353"/>
<path d="M2.88354 0.904925C8.0342 -0.665081 14.7529 2.44098 16.5695 8.39882C17.569 11.6775 17.6273 15.082 15.859 17.5688C14.0902 20.0554 12.7133 15.8767 12.3983 13.9349C12.0836 11.9926 10.8746 7.73651 10.2667 6.3521C8.63419 2.63486 5.82948 0.393487 2.88354 0.904925Z" fill="#535353"/>
<path d="M14.7044 3.18131C22.3229 2.20801 31.0251 8.18572 32.1512 16.999C32.7705 21.8479 32.0366 26.6494 28.9543 29.7221C25.8715 32.7946 24.937 26.5886 24.96 23.7822C24.9829 20.9765 24.3033 14.7017 23.7803 12.6102C22.3754 6.99211 18.9692 3.1678 14.7044 3.18131Z" fill="#535353"/>
<path d="M30.4272 37.9774C25.2768 39.5475 18.558 36.4414 16.7415 30.4837C15.7419 27.2048 15.6835 23.8005 17.452 21.3137C19.2205 18.8268 20.5976 23.0059 20.9125 24.9472C21.2271 26.8898 22.4362 31.1459 23.0441 32.5305C24.6766 36.2479 27.4815 38.4893 30.4272 37.9774Z" fill="#535353"/>
</svg>
