<svg width="149" height="40" viewBox="0 0 149 40" fill="none" xmlns="http://www.w3.org/2000/svg">
<path fill-rule="evenodd" clip-rule="evenodd" d="M54.521 12.7532L54.6451 14.97C56.06 13.2555 57.9177 12.3982 60.2172 12.3982C64.2019 12.3982 66.2301 14.6856 66.3007 19.2603V31.9355H62.0043V19.5084C62.0043 18.2911 61.7421 17.3904 61.2177 16.8045C60.6932 16.2195 59.835 15.9271 58.6439 15.9271C56.9102 15.9271 55.6183 16.7137 54.7711 18.285V31.9355H50.4728V12.7532H54.523H54.521ZM79.107 32.2905C76.3839 32.2905 74.1752 31.4312 72.4839 29.7117C70.7916 27.9921 69.9455 25.7017 69.9455 22.8415V22.3101C69.9455 20.3959 70.3136 18.6844 71.0508 17.1776C71.7871 15.6709 72.8228 14.498 74.1551 13.6579C75.4873 12.8198 76.9729 12.4002 78.6128 12.4002C81.2178 12.4002 83.2318 13.2333 84.6519 14.8994C86.0739 16.5665 86.7839 18.9234 86.7839 21.9732V23.7109H74.2781C74.4092 25.2943 74.9357 26.5469 75.8615 27.4687C76.7873 28.3905 77.9522 28.8514 79.3551 28.8514C81.3237 28.8514 82.9273 28.0546 84.1657 26.4581L86.4823 28.6749C85.7159 29.8206 84.6932 30.7101 83.4144 31.3424C82.1346 31.9748 80.6994 32.2905 79.108 32.2905H79.107ZM78.5946 15.8575C77.4146 15.8575 76.4636 16.271 75.7385 17.098C75.0123 17.925 74.5504 19.0777 74.3497 20.5552H82.539V20.2355C82.4442 18.7933 82.0609 17.7041 81.3893 16.9648C80.7166 16.2266 79.7857 15.8575 78.5946 15.8575ZM95.5026 8.0918V12.7542H98.8812V15.9452H95.5026V26.6528C95.5026 27.385 95.6479 27.9134 95.9363 28.2392C96.2247 28.5639 96.7411 28.7263 97.4844 28.7263C97.9904 28.7249 98.4947 28.6653 98.9871 28.5488V31.882C98.0088 32.1543 97.0659 32.2895 96.1572 32.2895C92.8562 32.2895 91.2053 30.464 91.2053 26.8121V15.9442H88.0546V12.7532H91.2033V8.09079H95.5006L95.5026 8.0918ZM106.735 31.9365H102.436V4.70616H106.735V31.9365ZM115.985 31.9365H111.687V12.7542H115.985V31.9365ZM111.421 7.77209C111.421 7.11151 111.63 6.56186 112.049 6.12416C112.468 5.68746 113.066 5.46861 113.844 5.46861C114.622 5.46861 115.223 5.68746 115.649 6.12416C116.073 6.56186 116.284 7.11151 116.284 7.7731C116.284 8.4226 116.073 8.96317 115.649 9.39482C115.223 9.82647 114.622 10.0423 113.844 10.0423C113.066 10.0423 112.468 9.82647 112.049 9.39482C111.63 8.96418 111.421 8.4226 111.421 7.7731V7.77209ZM122.175 31.9365V15.9442H119.257V12.7532H122.175V10.9984C122.175 8.87038 122.764 7.2285 123.943 6.0697C125.123 4.9119 126.773 4.33301 128.895 4.33301C129.65 4.33301 130.452 4.4389 131.301 4.6517L131.196 8.02019C130.653 7.91953 130.102 7.87224 129.551 7.879C127.498 7.879 126.473 8.93594 126.473 11.0518V12.7532H130.363V15.9442H126.473V31.9355H122.175V31.9365ZM140.198 25.7673L144.089 12.7542H148.669L141.065 34.8441C139.897 38.0704 137.916 39.684 135.122 39.684C134.496 39.684 133.807 39.5771 133.052 39.3643V36.0311L133.866 36.0846C134.95 36.0846 135.767 35.8869 136.316 35.4905C136.863 35.0952 137.297 34.4306 137.616 33.4967L138.234 31.8477L131.513 12.7542H136.147L140.198 25.7673Z" fill="#535353"/>
<path d="M28.8206 13.9201L28.8065 13.914C28.7984 13.911 28.7903 13.908 28.7833 13.9009C28.7717 13.8885 28.7631 13.8735 28.7582 13.8573C28.7533 13.841 28.7522 13.8238 28.755 13.8071L29.5346 9.04079L33.1905 12.6977L29.3884 14.3154C29.3778 14.3197 29.3665 14.3217 29.3551 14.3214H29.34C29.3349 14.3184 29.3299 14.3144 29.3198 14.3043C29.1783 14.1468 29.0091 14.0165 28.8206 13.9201ZM34.1234 13.6296L38.0325 17.5387C38.8444 18.3515 39.2508 18.757 39.399 19.2269C39.4212 19.2965 39.4394 19.3661 39.4535 19.4377L30.1115 15.4813C30.1065 15.4792 30.1014 15.4772 30.0964 15.4752C30.0591 15.4601 30.0157 15.4429 30.0157 15.4046C30.0157 15.3663 30.0601 15.3481 30.0974 15.333L30.1095 15.328L34.1234 13.6296ZM39.2942 20.6923C39.0924 21.0715 38.6991 21.4649 38.0335 22.1315L33.6262 26.5378L27.926 25.3507L27.8958 25.3447C27.8453 25.3366 27.7919 25.3275 27.7919 25.2822C27.7702 25.047 27.7004 24.8188 27.5868 24.6118C27.4731 24.4048 27.3181 24.2235 27.1313 24.079C27.1081 24.0558 27.1141 24.0195 27.1212 23.9862C27.1212 23.9811 27.1212 23.9761 27.1232 23.9721L28.1953 17.3904L28.1993 17.3682C28.2054 17.3178 28.2145 17.2593 28.2598 17.2593C28.4896 17.2307 28.7113 17.1567 28.9122 17.0416C29.113 16.9264 29.289 16.7724 29.4297 16.5886C29.4388 16.5785 29.4449 16.5674 29.457 16.5614C29.4892 16.5463 29.5276 16.5614 29.5608 16.5755L39.2931 20.6923H39.2942ZM32.6126 27.5513L25.3654 34.7986L26.6058 27.1742L26.6079 27.1641C26.6089 27.154 26.6109 27.1439 26.6139 27.1348C26.624 27.1106 26.6502 27.1005 26.6754 27.0904L26.6875 27.0854C26.9592 26.9695 27.1994 26.7908 27.3885 26.564C27.4127 26.5358 27.4419 26.5085 27.4792 26.5035C27.4889 26.5019 27.4988 26.5019 27.5085 26.5035L32.6116 27.5524L32.6126 27.5513ZM23.8314 36.3326L23.0145 37.1495L13.9831 24.0971C13.9798 24.0924 13.9765 24.0876 13.973 24.083C13.9589 24.0638 13.9438 24.0447 13.9468 24.0225C13.9468 24.0064 13.9579 23.9922 13.969 23.9801L13.9791 23.967C14.0063 23.9267 14.0295 23.8863 14.0547 23.843L14.0749 23.8077L14.0779 23.8047C14.092 23.7805 14.1051 23.7573 14.1293 23.7441C14.1505 23.7341 14.1797 23.7381 14.2029 23.7431L24.2086 25.8066C24.2365 25.8109 24.2629 25.8224 24.2852 25.8399C24.2983 25.853 24.3014 25.8671 24.3044 25.8832C24.3742 26.1473 24.5041 26.3917 24.6839 26.5972C24.8638 26.8028 25.0887 26.964 25.3411 27.0683C25.3694 27.0824 25.3573 27.1136 25.3442 27.1469C25.3376 27.1615 25.3326 27.1767 25.329 27.1923C25.203 27.9588 24.1218 34.5526 23.8314 36.3326ZM22.1249 38.038C21.5229 38.6341 21.1679 38.9497 20.7665 39.0768C20.3707 39.202 19.9459 39.202 19.5502 39.0768C19.0802 38.9276 18.6738 38.5221 17.8619 37.7093L8.79218 28.6395L11.1612 24.9655C11.1723 24.9473 11.1834 24.9312 11.2016 24.9181C11.2268 24.8999 11.2631 24.908 11.2933 24.9181C11.8371 25.0821 12.4209 25.0525 12.9453 24.8344C12.9725 24.8243 12.9998 24.8172 13.0209 24.8364C13.0315 24.846 13.041 24.8569 13.0492 24.8687L22.1249 38.039V38.038ZM7.91779 27.7652L5.83719 25.6846L9.94594 23.9317C9.95644 23.9272 9.96776 23.9247 9.97922 23.9247C10.0135 23.9247 10.0337 23.959 10.0518 23.9902C10.0931 24.0538 10.1369 24.1157 10.1829 24.1758L10.1961 24.1919C10.2082 24.2091 10.2001 24.2262 10.188 24.2424L7.9188 27.7652H7.91779ZM4.9164 24.7638L2.28414 22.1315C1.83635 21.6837 1.51161 21.359 1.2857 21.0796L9.28939 22.7396C9.29944 22.7415 9.30953 22.7432 9.31964 22.7447C9.36906 22.7528 9.42352 22.7618 9.42352 22.8082C9.42352 22.8587 9.36402 22.8819 9.31359 22.901L9.2904 22.9111L4.9164 24.7638ZM0.825806 19.7262C0.834927 19.5566 0.865424 19.3889 0.916573 19.2269C1.06584 18.757 1.47126 18.3515 2.28414 17.5387L5.65263 14.1702C7.20358 16.4211 8.75874 18.6691 10.3181 20.9142C10.3453 20.9505 10.3756 20.9909 10.3443 21.0211C10.1971 21.1835 10.0498 21.361 9.94594 21.5536C9.93467 21.5784 9.91733 21.5999 9.89551 21.6161C9.8824 21.6242 9.86828 21.6212 9.85316 21.6182H9.85114L0.825806 19.7252V19.7262ZM6.55426 13.2685L11.0815 8.73924C11.5082 8.92581 13.0583 9.58035 14.443 10.1653C15.4918 10.609 16.4479 11.0125 16.7485 11.1436C16.7787 11.1557 16.806 11.1678 16.8191 11.198C16.8271 11.2162 16.8231 11.2394 16.8191 11.2585C16.7474 11.5855 16.758 11.9251 16.8501 12.2469C16.9422 12.5687 17.1128 12.8626 17.3465 13.1021C17.3768 13.1324 17.3465 13.1758 17.3203 13.2131L17.3062 13.2343L12.7073 20.3575C12.6952 20.3777 12.6841 20.3948 12.6639 20.4079C12.6397 20.4231 12.6054 20.416 12.5772 20.4089C12.3983 20.3621 12.2144 20.337 12.0296 20.3343C11.8642 20.3343 11.6846 20.3646 11.5031 20.3978H11.5021C11.4819 20.4009 11.4638 20.4049 11.4476 20.3928C11.4298 20.3782 11.4145 20.3609 11.4023 20.3414L6.55325 13.2685H6.55426ZM11.9983 7.8245L17.8619 1.96091C18.6738 1.14904 19.0802 0.742604 19.5502 0.59435C19.9459 0.469201 20.3707 0.469201 20.7665 0.59435C21.2364 0.742604 21.6429 1.14904 22.4547 1.96091L23.7255 3.23166L19.5552 9.69028C19.5449 9.70908 19.5308 9.72556 19.5139 9.73869C19.4886 9.75583 19.4534 9.74877 19.4231 9.73869C19.0943 9.63891 18.7461 9.62074 18.4088 9.68576C18.0714 9.75078 17.7549 9.89703 17.4867 10.1118C17.4595 10.1401 17.4191 10.1239 17.3849 10.1088C16.8403 9.87181 12.6044 8.08167 11.9983 7.8245ZM24.611 4.11714L28.4615 7.96771L27.5337 13.7143V13.7294C27.5329 13.7425 27.5301 13.7554 27.5256 13.7678C27.5155 13.7879 27.4954 13.792 27.4752 13.798C27.2768 13.8581 27.09 13.9512 26.9225 14.0733C26.9153 14.0785 26.9086 14.0842 26.9024 14.0905C26.8913 14.1026 26.8802 14.1137 26.862 14.1157C26.8472 14.1162 26.8325 14.1138 26.8186 14.1086L20.951 11.6156L20.9399 11.6105C20.9026 11.5954 20.8582 11.5772 20.8582 11.5389C20.8237 11.2119 20.717 10.8967 20.5456 10.6161C20.5174 10.5697 20.4861 10.5213 20.5103 10.4739L24.611 4.11714ZM20.6454 12.7966L26.146 15.1263C26.1762 15.1404 26.2095 15.1535 26.2226 15.1847C26.2279 15.2036 26.2279 15.2234 26.2226 15.2422C26.2065 15.3229 26.1923 15.4147 26.1923 15.5075V15.6618C26.1923 15.7001 26.153 15.7162 26.1167 15.7314L26.1056 15.7354C25.2342 16.1076 13.8721 20.9525 13.855 20.9525C13.8379 20.9525 13.8197 20.9525 13.8026 20.9354C13.7723 20.9051 13.8026 20.8628 13.8298 20.8244C13.8346 20.8178 13.8393 20.8111 13.8439 20.8043L18.3641 13.8051L18.3722 13.793C18.3984 13.7506 18.4287 13.7032 18.4771 13.7032L18.5225 13.7103C18.6253 13.7244 18.7161 13.7375 18.8079 13.7375C19.4937 13.7375 20.1291 13.4037 20.5123 12.8329C20.5214 12.8176 20.533 12.804 20.5466 12.7925C20.5738 12.7723 20.6142 12.7824 20.6454 12.7966ZM14.3462 22.0599L26.7309 16.7782C26.7309 16.7782 26.7491 16.7782 26.7662 16.7954C26.8338 16.8629 26.8913 16.9083 26.9467 16.9507L26.974 16.9678C26.9992 16.982 27.0244 16.9981 27.0264 17.0243C27.0264 17.0344 27.0264 17.0404 27.0244 17.0495L25.9634 23.5666L25.9594 23.5929C25.9523 23.6433 25.9453 23.7008 25.8979 23.7008C25.615 23.7199 25.3411 23.8076 25.0998 23.9565C24.8585 24.1053 24.6571 24.3108 24.5131 24.555L24.5081 24.5631C24.494 24.5863 24.4809 24.6085 24.4577 24.6206C24.4365 24.6306 24.4093 24.6266 24.3871 24.6216L14.5105 22.5843C14.5005 22.5823 14.3573 22.0609 14.3462 22.0599Z" fill="#535353"/>
</svg>
