<svg width="143" height="49" viewBox="0 0 143 49" fill="none" xmlns="http://www.w3.org/2000/svg">
<path d="M40.8642 11.1252L24.1131 1.45254C22.6102 0.586784 20.7446 0.586784 19.2386 1.45254C17.7358 2.32134 16.803 3.93701 16.803 5.67157V6.93362L15.7116 6.30259C14.2087 5.43684 12.3431 5.43684 10.8372 6.30259C9.3343 7.1714 8.40148 8.78707 8.40148 10.5247V11.7867L7.31014 11.1557C5.80726 10.2899 3.94162 10.2899 2.43569 11.1557C0.932817 12.0245 0 13.6402 0 15.3778V45.6853C0 46.5571 0.506037 47.368 1.29253 47.746C2.07598 48.1271 3.02709 48.0234 3.70994 47.4839L12.0169 40.9328L24.8264 48.3283C25.18 48.5325 25.5763 48.6331 25.9726 48.6331C26.3689 48.6331 26.7652 48.5295 27.1188 48.3283C27.8261 47.9198 28.2651 47.1607 28.2651 46.3437V28.105C28.2651 25.1114 26.6555 22.3251 24.0643 20.8284L19.8636 18.4018V5.67462C19.8636 5.02835 20.2111 4.42476 20.772 4.10163C21.3329 3.77849 22.028 3.77849 22.5889 4.10163L39.34 13.7713C40.9892 14.7224 42.0135 16.4996 42.0135 18.4018V41.1126C42.0135 41.7589 41.666 42.3625 41.105 42.6856L36.6665 45.2494V23.2519C36.6665 20.2583 35.057 17.472 32.4658 15.9753L22.153 10.0217V13.5487L30.9385 18.6213C32.5877 19.5724 33.612 21.3466 33.612 23.2519V46.5693C33.612 47.3833 34.051 48.1454 34.7582 48.5539C35.1118 48.7581 35.5081 48.8587 35.9044 48.8587C36.3007 48.8587 36.697 48.7551 37.0506 48.5539L42.6354 45.3286C44.1382 44.4598 45.0711 42.8441 45.0711 41.1065V18.3957C45.065 15.4113 43.4554 12.622 40.8642 11.1252ZM22.531 23.4744C24.1802 24.4255 25.2044 26.1997 25.2044 28.105V45.0238L14.5959 38.8995L18.001 36.2169C19.1807 35.2871 19.8575 33.8939 19.8575 32.3911V21.9349L22.531 23.4744ZM16.803 20.1669V32.385C16.803 32.9459 16.5499 33.4672 16.111 33.8116L3.05453 44.1062V15.3747C3.05453 14.7285 3.40205 14.1249 3.96296 13.8017C4.52387 13.4786 5.21891 13.4786 5.77983 13.8017L8.40148 15.3138V36.9729L11.456 34.5646V10.5247C11.456 9.8784 11.8035 9.27481 12.3644 8.95168C12.9253 8.62855 13.6204 8.62855 14.1813 8.95168L16.803 10.4637V16.6368L13.7484 14.8717V18.4018L16.803 20.1669Z" fill="#535353"/>
<path d="M83.28 23.7087H76.0827V17.9868H72.4093V32.665H76.0827V26.9431H83.28V32.665H87.0875V17.9868H83.28V23.7087Z" fill="#535353"/>
<path d="M101.61 17.9868H95.733C94.1051 17.9868 93.1144 18.2947 92.3645 19.0446C91.6176 19.7915 91.3311 20.7396 91.3311 22.4131V28.2448C91.3311 29.9184 91.6176 30.8634 92.3645 31.6133C93.1113 32.3632 94.1021 32.6711 95.733 32.6711H101.61C103.238 32.6711 104.229 32.3632 104.979 31.6133C105.729 30.8664 106.012 29.9184 106.012 28.2448V22.4131C106.012 20.7396 105.726 19.7945 104.979 19.0446C104.229 18.2947 103.238 17.9868 101.61 17.9868ZM102.336 28.3301C102.336 29.1898 102.049 29.4306 101.016 29.4306H96.3274C95.294 29.4306 95.0075 29.1898 95.0075 28.3301V22.3217C95.0075 21.462 95.294 21.2212 96.3274 21.2212H101.016C102.074 21.2212 102.336 21.4407 102.336 22.3217V28.3301Z" fill="#535353"/>
<path d="M127.11 17.9868V21.2212H132.765V32.665H136.442V21.2212H142.075V17.9868H127.11Z" fill="#535353"/>
<path d="M120.379 23.8611H115.121C114.087 23.8611 113.801 23.6203 113.801 22.7607V22.3217C113.801 21.462 114.087 21.2212 115.121 21.2212H124.016V17.9868H114.505C112.853 17.9868 111.865 18.2947 111.137 19.0446C110.475 19.7275 110.103 20.7822 110.103 21.9498V22.8308C110.103 23.9983 110.478 25.0744 111.137 25.7359C111.862 26.4828 112.874 26.7937 114.505 26.7937H119.764C120.797 26.7937 121.084 27.0346 121.084 27.8942V28.3332C121.084 29.1929 120.797 29.4337 119.764 29.4337H110.344V32.6681H120.379C122.029 32.6681 123.019 32.3602 123.748 31.6103C124.406 30.9274 124.781 29.8727 124.781 28.7051V27.8241C124.781 26.6566 124.406 25.5805 123.748 24.919C123.019 24.169 122.007 23.8611 120.379 23.8611Z" fill="#535353"/>
<path d="M63.6145 17.8721H57.7371C56.1093 17.8721 55.1185 18.18 54.3686 18.9299C53.6218 19.6767 53.3352 20.6248 53.3352 22.2953V24.5237V25.2096V32.6631H57.0116V25.2127V24.5268V22.21C57.0116 21.3503 57.2982 21.1095 58.3316 21.1095H63.0201C64.0779 21.1095 64.34 21.329 64.34 22.21V24.5268V25.2127V32.6661H68.0164V25.2127V24.5268V22.2984C68.0164 20.6248 67.7299 19.6798 66.983 18.9329C66.2362 18.18 65.2454 17.8721 63.6145 17.8721Z" fill="#535353"/>
</svg>
